<svg xmlns="http://www.w3.org/2000/svg" viewBox="0 0 200 200" width="200" height="200" role="img" aria-label="MySelf">
  <title>MySelf — pacte</title>
  
  <g fill="#7ab7ff">
    <circle cx="42" cy="58" r="5"></circle>
    <circle cx="62" cy="88" r="4"></circle>
    <circle cx="38" cy="118" r="5.5"></circle>
    <circle cx="70" cy="138" r="4"></circle>
    <circle cx="54" cy="42" r="4"></circle>
    <circle cx="78" cy="70" r="3.5"></circle>
    <circle cx="50" cy="158" r="3.5"></circle>
    <circle cx="30" cy="90" r="3"></circle>
  </g>
  
  <g fill="#a380ff">
    <rect x="126.5" y="52.5" width="7" height="7"></rect><rect x="140.5" y="52.5" width="7" height="7"></rect><rect x="154.5" y="52.5" width="7" height="7"></rect><rect x="168.5" y="52.5" width="7" height="7"></rect>
    <rect x="126.5" y="77.5" width="7" height="7"></rect><rect x="140.5" y="77.5" width="7" height="7"></rect><rect x="154.5" y="77.5" width="7" height="7"></rect><rect x="168.5" y="77.5" width="7" height="7"></rect>
    <rect x="126.5" y="102.5" width="7" height="7"></rect><rect x="140.5" y="102.5" width="7" height="7"></rect><rect x="154.5" y="102.5" width="7" height="7"></rect><rect x="168.5" y="102.5" width="7" height="7"></rect>
    <rect x="126.5" y="127.5" width="7" height="7"></rect><rect x="140.5" y="127.5" width="7" height="7"></rect><rect x="154.5" y="127.5" width="7" height="7"></rect><rect x="168.5" y="127.5" width="7" height="7"></rect>
  </g>
  
  <circle cx="100" cy="100" r="26" fill="none" stroke="#e8eaed" stroke-width="4"></circle>
  <circle cx="100" cy="100" r="7" fill="#e8eaed"></circle>
</svg>